<svg id="Layer_1" data-name="Layer 1" xmlns="http://www.w3.org/2000/svg" viewBox="0 0 173.39 200"><title>chimie</title><circle fill='white' cx="86.7" cy="102.47" r="21.11"/>
<path fill='white' d="M33.23,120.06a11.1,11.1,0,0,0,2.4.3,9.81,9.81,0,0,0,9.83-9.82,10.14,10.14,0,0,0-.27-2.27,9.67,9.67,0,0,0-3.55-5.5,9.82,9.82,0,0,0-15.87,7.77,9.69,9.69,0,0,0,2,5.87A9.92,9.92,0,0,0,33.23,120.06Z" transform="translate(-13.3 0)"/><path fill='white' d="M89.23,19.18A9.73,9.73,0,0,0,102,10.84a9.54,9.54,0,0,0,.1-1,9.84,9.84,0,0,0-2-5.84A9.83,9.83,0,0,0,84,15.23,9.93,9.93,0,0,0,89.23,19.18Z" transform="translate(-13.3 0)"/><path fill='white' d="M94.56,182.47a9.87,9.87,0,0,0-9.86-9.86,10.52,10.52,0,0,0-1.11.14,9.72,9.72,0,0,0-8.72,9.72,9.84,9.84,0,0,0,9.83,9.86,8.57,8.57,0,0,0,1.72-.17,9.65,9.65,0,0,0,5.71-3.27A9.78,9.78,0,0,0,94.56,182.47Z" transform="translate(-13.3 0)"/><path fill='white' d="M157.51,102A160.37,160.37,0,0,0,171,89c13.91-15.19,18.71-27.66,13.88-36-3.17-5.5-9.9-8.27-20-8.27-9.73,0-22.29,2.67-36.11,7.46A168.65,168.65,0,0,0,124.25,34C119.57,19.25,113.66,9.73,106.9,5.92a14.29,14.29,0,0,1,.59,3.95,11.84,11.84,0,0,1-.16,1.51,14.56,14.56,0,0,1-.52,2.66c6.16,6.25,12,20.53,15.75,40.43-7.29,2.81-14.89,6.12-22.56,9.93-7.7-3.81-15.27-7.12-22.59-9.93,2.39-12.71,5.64-23.08,9.29-30.58a15.64,15.64,0,0,1-5.47-3.63A91.69,91.69,0,0,0,75.75,34a161.86,161.86,0,0,0-4.52,18.17c-13.85-4.79-26.38-7.46-36.11-7.46-10.09,0-16.82,2.77-20,8.27C10.3,61.36,15.1,73.83,29,89c2.45,2.69,5.17,5.4,8.08,8.12a13.74,13.74,0,0,1,6.79,2.74,13.23,13.23,0,0,1,4.76,7.23c5.81,4.65,12.07,9.25,18.77,13.69.54,8.55,1.45,16.79,2.7,24.56-13.51,4.76-25.67,7.39-35,7.39-5.23,0-12-.84-14.38-5-2.82-4.92.87-13.89,10-24.72a13.68,13.68,0,0,1-5.33-3.83C14.3,132.46,10.77,143.41,15.13,151c3.17,5.47,9.9,8.24,20,8.24,9.73,0,22.26-2.67,36.11-7.47A161,161,0,0,0,75.75,170c.21.67.44,1.27.66,1.92a13.73,13.73,0,0,1,6-2.6,154.51,154.51,0,0,1-5-19.79c7.32-2.77,14.89-6.11,22.59-9.9,7.67,3.79,15.27,7.13,22.56,9.9-5.1,27.22-14.15,44-22.56,44a8.68,8.68,0,0,1-5.24-2.15,13.28,13.28,0,0,1-5.57,3.8c3.37,3.18,7,4.83,10.81,4.83,9.66,0,18-10.4,24.25-30a167.69,167.69,0,0,0,4.52-18.21c13.82,4.8,26.38,7.47,36.11,7.47,10.09,0,16.82-2.77,20-8.24,4.83-8.38,0-20.81-13.88-36A168.85,168.85,0,0,0,157.51,102ZM67,112.7c-5.1-3.51-9.93-7.09-14.42-10.71C57,98.45,61.84,94.87,67,91.29c-.14,3.54-.2,7.12-.2,10.7S66.9,109.19,67,112.7Zm.37-29.52c-7.13,4.76-13.81,9.66-19.89,14.59A154,154,0,0,1,33.81,84.63c-11.32-12.32-16.18-23-13.07-28.37,2.39-4.15,9.15-5,14.38-5,9.32,0,21.48,2.67,35,7.43C68.86,66.4,68,74.64,67.41,83.18ZM123.67,61c.88,5.58,1.56,11.52,2.1,17.83q-4.51-2.83-9.19-5.53c-3.14-1.79-6.25-3.52-9.39-5.17C112.8,65.45,118.34,63.05,123.67,61ZM76.29,61c5.37,2.06,10.88,4.46,16.48,7.13-3.1,1.65-6.25,3.38-9.35,5.17s-6.18,3.64-9.19,5.53C74.74,72.51,75.45,66.57,76.29,61Zm0,82c-.84-5.58-1.55-11.55-2.06-17.84,3,1.9,6.08,3.72,9.19,5.54s6.25,3.52,9.35,5.17C87.17,138.57,81.66,140.93,76.29,143Zm47.38,0c-5.33-2.1-10.87-4.46-16.48-7.13,3.14-1.65,6.25-3.38,9.39-5.17s6.18-3.64,9.19-5.54C125.23,131.48,124.55,137.45,123.67,143Zm2.61-25.87c-4.19,2.7-8.52,5.37-12.94,7.93s-8.92,5-13.34,7.23c-4.42-2.26-8.88-4.66-13.34-7.23s-8.78-5.23-12.94-7.93c-.27-4.9-.4-9.93-.4-15.17s.13-10.26.4-15.16q6.14-4,12.94-7.9c4.46-2.57,8.92-5,13.34-7.27,4.42,2.27,8.88,4.7,13.34,7.27s8.81,5.23,12.94,7.9c.23,4.9.37,10,.37,15.16S126.51,112.26,126.28,117.16Zm38.6-65.93c5.23,0,12,.88,14.35,5,3.14,5.41-1.72,16.05-13,28.37a154,154,0,0,1-13.71,13.14c-6.08-4.93-12.76-9.83-19.92-14.59-.51-8.54-1.42-16.78-2.67-24.52C143.4,53.9,155.56,51.23,164.88,51.23ZM133,91.29q7.8,5.37,14.42,10.7c-4.49,3.62-9.32,7.2-14.42,10.71.14-3.51.2-7.09.2-10.71S133.1,94.83,133,91.29Zm46.27,56.46c-2.4,4.16-9.12,5-14.35,5-9.32,0-21.48-2.63-35-7.39,1.25-7.77,2.16-16,2.67-24.56a241.4,241.4,0,0,0,19.89-14.59C173.45,124.25,183.45,140.46,179.23,147.75Z" transform="translate(-13.3 0)"/></svg>