<svg id="Layer_1" data-name="Layer 1" xmlns="http://www.w3.org/2000/svg" viewBox="0 0 199.99 200"><title>electro</title>
<path fill='white' d="M200,51.68V46.31H178.74V33A11.76,11.76,0,0,0,167,21.25H153.69V0h-5.37V21.25H136.68V0h-5.37V21.25H119.68V0h-5.36V21.25H102.68V0H97.31V21.25H85.68V0H80.31V21.25H68.68V0H63.31V21.25H51.68V0H46.31V21.25H33A11.76,11.76,0,0,0,21.26,33V46.31H0v5.37H21.26V63.31H0v5.37H21.26V80.31H0v5.37H21.26V97.32H0v5.36H21.26v11.64H0v5.37H21.26v11.63H0v5.37H21.26v11.63H0v5.37H21.26V167A11.76,11.76,0,0,0,33,178.75H46.31V200h5.37V178.75H63.31V200h5.37V178.75H80.31V200h5.37V178.75H97.31V200h5.37V178.75h11.64V200h5.36V178.75h11.63V200h5.37V178.75h11.64V200h5.37V178.75H167A11.76,11.76,0,0,0,178.74,167V153.69H200v-5.37H178.74V136.69H200v-5.37H178.74V119.69H200v-5.37H178.74V102.68H200V97.32H178.74V85.68H200V80.31H178.74V68.68H200V63.31H178.74V51.68ZM166.21,55H145v1.89h21.2V74.66H137.29a7.63,7.63,0,1,0,0,1.89h28.92v89.67H33.78V141.35h15a7.63,7.63,0,1,0,0-1.89h-15V127.83H79.15c.35,0,8.41.4,8.41,10.62v27.44h1.89V138.45c0-12-10.13-12.5-10.27-12.51H33.78V114.86H99.42a7.63,7.63,0,1,0,0-1.89H33.78V96.46h55.3c.9,0,6.35-.17,10.23-3.94,2.51-2.46,3.79-5.89,3.79-10.19V71.07a7.63,7.63,0,1,0-1.89,0V82.33c0,3.77-1.08,6.73-3.21,8.82-3.56,3.49-9,3.43-9,3.41H33.78V68.45H56.35V66.56H33.78V54.32H62.71a7.64,7.64,0,1,0,0-1.89H33.78V33.78H166.21Z" transform="translate(0 0)"/>
<rect fill='white' x="118.91" y="145.61" width="1.89" height="20.28"/>
<rect fill='white' x="142.42" y="150.75" width="1.89" height="15.14"/>
<path fill='white' d="M131.1,140.31v25.58H133V140.31a7.64,7.64,0,1,0-1.89,0Z" transform="translate(0 0)"/></svg>