<svg id="Layer_1" data-name="Layer 1" xmlns="http://www.w3.org/2000/svg" viewBox="0 0 716.2 183.85">
<polygon fill='white'  points="561.22 109.78 567.37 109.78 567.37 78.72 566.71 78.72 553.87 83.32 553.87 88.33 561.22 86.05 561.22 109.78"/>
<path fill='white'  d="M79.92,102q5.13,0,7.8-3.41c1.77-2.27,2.66-5.56,2.66-9.84V83q-.07-6.26-2.75-9.58a9.4,9.4,0,0,0-7.76-3.34,9.39,9.39,0,0,0-7.76,3.37q-2.7,3.36-2.69,9.87V89q0,6.24,2.74,9.58T79.92,102ZM75.57,82a10.6,10.6,0,0,1,1.1-5.24,3.51,3.51,0,0,1,3.2-1.67,3.58,3.58,0,0,1,3.3,1.76,11.38,11.38,0,0,1,1,5.62v7.38a11.74,11.74,0,0,1-1,5.41A3.47,3.47,0,0,1,79.92,97a3.52,3.52,0,0,1-3.32-1.84,12,12,0,0,1-1-5.64Z" transform="translate(516.2 8.24)"/>
<polygon fill='white'  points="627.78 109.78 633.93 109.78 633.93 78.72 633.27 78.72 620.43 83.32 620.43 88.33 627.78 86.05 627.78 109.78"/>
<path fill='white'  d="M146.48,102q5.13,0,7.8-3.41c1.77-2.27,2.66-5.56,2.66-9.84V83q-.08-6.26-2.75-9.58a10.65,10.65,0,0,0-15.52,0Q136,76.82,136,83.33V89q.06,6.24,2.74,9.58T146.48,102Zm-4.35-20a10.6,10.6,0,0,1,1.1-5.24,3.52,3.52,0,0,1,3.21-1.67,3.58,3.58,0,0,1,3.29,1.76,11.38,11.38,0,0,1,1.05,5.62v7.38a11.74,11.74,0,0,1-1,5.41A3.47,3.47,0,0,1,146.48,97a3.52,3.52,0,0,1-3.32-1.84,12,12,0,0,1-1-5.64Z" transform="translate(516.2 8.24)"/>
<path fill='white'  d="M46.64,154.33q5.13,0,7.8-3.41c1.77-2.27,2.66-5.56,2.66-9.84v-5.71q-.06-6.26-2.75-9.58a9.38,9.38,0,0,0-7.75-3.34,9.39,9.39,0,0,0-7.77,3.37q-2.7,3.36-2.69,9.87v5.71q.06,6.24,2.74,9.58T46.64,154.33Zm-4.35-20a10.71,10.71,0,0,1,1.1-5.24,3.52,3.52,0,0,1,3.21-1.67,3.57,3.57,0,0,1,3.29,1.76,11.38,11.38,0,0,1,1,5.62v7.38a11.61,11.61,0,0,1-1,5.41,3.47,3.47,0,0,1-3.26,1.77,3.52,3.52,0,0,1-3.32-1.84,12,12,0,0,1-1-5.64Z" transform="translate(516.2 8.24)"/>
<polygon fill='white'  points="587.14 135.68 587.14 140.69 594.49 138.41 594.49 162.14 600.65 162.14 600.65 131.08 599.99 131.08 587.14 135.68"/>
<path fill='white'  d="M113.2,154.33q5.13,0,7.8-3.41c1.77-2.27,2.66-5.56,2.66-9.84v-5.71q-.06-6.26-2.75-9.58a10.65,10.65,0,0,0-15.52,0q-2.69,3.36-2.69,9.87v5.71q.06,6.24,2.74,9.58T113.2,154.33Zm-4.35-20a10.71,10.71,0,0,1,1.1-5.24,3.52,3.52,0,0,1,3.21-1.67,3.57,3.57,0,0,1,3.29,1.76,11.38,11.38,0,0,1,1,5.62v7.38a11.61,11.61,0,0,1-1,5.41,3.89,3.89,0,0,1-6.57-.07,11.9,11.9,0,0,1-1-5.64Z" transform="translate(516.2 8.24)"/>
<path fill='white'  d="M146.48,154.33q5.13,0,7.8-3.41c1.77-2.27,2.66-5.56,2.66-9.84v-5.71q-.08-6.26-2.75-9.58a10.65,10.65,0,0,0-15.52,0q-2.7,3.36-2.69,9.87v5.71q.06,6.24,2.74,9.58T146.48,154.33Zm-4.35-20a10.6,10.6,0,0,1,1.1-5.24,3.52,3.52,0,0,1,3.21-1.67,3.58,3.58,0,0,1,3.29,1.76,11.38,11.38,0,0,1,1.05,5.62v7.38a11.74,11.74,0,0,1-1,5.41,3.47,3.47,0,0,1-3.26,1.77,3.52,3.52,0,0,1-3.32-1.84,12,12,0,0,1-1-5.64Z" transform="translate(516.2 8.24)"/>
<path fill='white'  d="M186,24.4H14a14,14,0,0,0-14,14V175.6H200V38.41A14,14,0,0,0,186,24.4ZM81.1,31.87a6.72,6.72,0,1,1-6.72,6.72A6.72,6.72,0,0,1,81.1,31.87Zm-29.92,0a6.72,6.72,0,1,1-6.73,6.72A6.72,6.72,0,0,1,51.18,31.87Zm-29.93,0a6.72,6.72,0,1,1-6.73,6.72A6.72,6.72,0,0,1,21.25,31.87Zm172,137H6.71V52.63H193.29Z" transform="translate(516.2 8.24)"/>
<path fill='white'  class="cls-1" d="M-487,23.22a6.29,6.29,0,0,0,3.2-5.48,6.29,6.29,0,0,0-6.29-6.3,6.29,6.29,0,0,0-6.29,6.3,6.29,6.29,0,0,0,3.2,5.48l-13.71,34.69a1.76,1.76,0,0,0,1.4,2.28,2.59,2.59,0,0,0,.68.09A2.19,2.19,0,0,0-502.72,59l3.18-8.05h18.92l3.18,8.05a2.32,2.32,0,0,0,2.76,1.16,1.77,1.77,0,0,0,1.41-2.28Zm-6.24-5.59a3.15,3.15,0,0,1,3.15-3.15,3.15,3.15,0,0,1,3.15,3.15,3.15,3.15,0,0,1-3.15,3.15A3.15,3.15,0,0,1-493.23,17.63Zm3.15,9.43,3.79,9.59h-7.58Zm-8,20.3,2.81-7.11.22,0h10l.22,0,2.81,7.11Z" transform="translate(516.2 8.24)"/>
<path fill='white'  class="cls-1" d="M-490.08-8.24a27,27,0,0,0-3,.16A26.18,26.18,0,0,0-516,15a26.06,26.06,0,0,0,9.89,23.45,26.17,26.17,0,0,0,3.36,2.24.55.55,0,0,0,.28.07l.2,0a.57.57,0,0,0,.34-.34l.94-2.61a.57.57,0,0,0-.25-.69,23.17,23.17,0,0,1-3.16-2.24,22.16,22.16,0,0,1-7.86-17.61A22.29,22.29,0,0,1-491.14-4.33a22.22,22.22,0,0,1,23.29,22.2,22.24,22.24,0,0,1-7.87,17,22.57,22.57,0,0,1-3.16,2.24.57.57,0,0,0-.25.69l.94,2.61a.57.57,0,0,0,.34.34.58.58,0,0,0,.48,0A26.17,26.17,0,0,0-474,38.44,26,26,0,0,0-464,17.87,26.14,26.14,0,0,0-490.08-8.24Z" transform="translate(516.2 8.24)"/>
<path fill='white'  class="cls-1" d="M-482.6,27a.59.59,0,0,0-.17.64l1,2.7a.59.59,0,0,0,.37.35l.17,0a.54.54,0,0,0,.33-.1,15.46,15.46,0,0,0,3.15-3,15.5,15.5,0,0,0,3.42-9.77A15.8,15.8,0,0,0-486.85,2.49a15.58,15.58,0,0,0-6.45,0,15.8,15.8,0,0,0-12.5,15.38,15.56,15.56,0,0,0,3.42,9.77,15.72,15.72,0,0,0,3.15,3,.59.59,0,0,0,.5.08.59.59,0,0,0,.37-.35l1-2.7a.59.59,0,0,0-.17-.64,11.85,11.85,0,0,1-2.74-3.2,11.74,11.74,0,0,1-1.61-6,11.88,11.88,0,0,1,7.78-11.12,11.87,11.87,0,0,1,8.1,0,11.88,11.88,0,0,1,7.78,11.12,11.9,11.9,0,0,1-1.61,6A11.81,11.81,0,0,1-482.6,27Z" transform="translate(516.2 8.24)"/>
</svg>