<svg id="Layer_1" data-name="Layer 1" xmlns="http://www.w3.org/2000/svg" viewBox="0 0 152.45 200">
<path fill='white' d="M109,91.82a18.38,18.38,0,1,0-18,0L51,193.08c-1.1,2.76.73,5.75,4.09,6.66a8,8,0,0,0,2,.26,6.42,6.42,0,0,0,6.08-3.65l9.29-23.5H127.6l9.3,23.5c1.1,2.78,4.71,4.29,8.06,3.39s5.18-3.9,4.09-6.66ZM90.8,75.5a9.2,9.2,0,1,1,9.2,9.19A9.2,9.2,0,0,1,90.8,75.5ZM100,103l11.07,28H88.93ZM76.57,162.29l8.2-20.75.65.06h29.16l.65-.06,8.2,20.75Z" transform="translate(-23.78)"/>
<path fill='white' d="M100,0a79.4,79.4,0,0,0-8.7.48,76.26,76.26,0,0,0-28.39,142.3,1.66,1.66,0,0,0,.81.21l.59-.1a1.7,1.7,0,0,0,1-1l2.75-7.62a1.67,1.67,0,0,0-.73-2,64.76,64.76,0,1,1,65.36,0,1.67,1.67,0,0,0-.73,2l2.76,7.62a1.66,1.66,0,0,0,2.39.9,78.27,78.27,0,0,0,9.8-6.52A76.19,76.19,0,0,0,100,0Z" transform="translate(-23.78)"/>
<path fill='white' d="M121.84,103a1.68,1.68,0,0,0-.51,1.86l2.84,7.86a1.65,1.65,0,0,0,1.08,1l.49.08a1.66,1.66,0,0,0,1-.32,45.83,45.83,0,0,0,9.18-8.74,45.27,45.27,0,0,0,10-28.5,45.87,45.87,0,1,0-91.74,0,45.35,45.35,0,0,0,10,28.5,45.83,45.83,0,0,0,9.18,8.74,1.71,1.71,0,0,0,1.47.24,1.63,1.63,0,0,0,1.08-1l2.84-7.86a1.68,1.68,0,0,0-.51-1.86,35,35,0,0,1-8-9.34A34.52,34.52,0,1,1,121.84,103Z" transform="translate(-23.78)"/>
</svg>